Coordinates
version=1
nRows=14
nColumns=24
inDegrees=yes

Units are S.I. units (second, meters, Newtons, ...)
Angles are in degrees.

endheader
time	pelvis_tilt	pelvis_list	pelvis_rotation	pelvis_tx	pelvis_ty	pelvis_tz	hip_flexion_r	hip_adduction_r	hip_rotation_r	knee_angle_r	ankle_angle_r	subtalar_angle_r	mtp_angle_r	hip_flexion_l	hip_adduction_l	hip_rotation_l	knee_angle_l	ankle_angle_l	subtalar_angle_l	mtp_angle_l	lumbar_extension	lumbar_bending	lumbar_rotation
      5.93500000	     12.69884689	      0.06925077	     13.90352094	      1.57514807	      0.92004036	     -0.27456442	      6.74920389	     -0.04971563	     -7.74110756	     -4.61218486	     12.96072101	     -1.35796726	      0.00000000	    -29.45500488	     -4.83742434	      9.83363416	    -17.79063493	     18.42671350	     11.81397902	      0.00000000	    -27.71596322	      5.29999102	    -17.30348219
      5.94000000	     12.83883505	     -0.43036214	     14.06102933	      1.58248447	      0.91957517	     -0.27419832	      6.73404009	      0.61009056	     -7.57589344	     -5.38284625	     12.91779136	     -1.78153632	      0.00000000	    -29.35953227	     -5.54790705	      9.34904427	    -18.95139043	     18.13719146	     12.61539194	      0.00000000	    -27.66251054	      5.88827494	    -17.24995077
      5.94500000	     12.97283654	     -0.95257661	     14.21389808	      1.58986283	      0.91913722	     -0.27378631	      6.72858064	      1.30065085	     -7.41226669	     -6.18551928	     12.87099067	     -2.21667295	      0.00000000	    -29.21949667	     -6.28174262	      8.85064309	    -20.16515112	     17.78634762	     13.41550687	      0.00000000	    -27.59049720	      6.48819620	    -17.18617497
      5.95000000	     13.09550031	     -1.48627722	     14.36482874	      1.59723761	      0.91871770	     -0.27333514	      6.73163900	      2.00723581	     -7.26754558	     -6.99952438	     12.83328248	     -2.62927008	      0.00000000	    -29.01500660	     -7.02472450	      8.35809998	    -21.46124381	     17.39592833	     14.19026896	      0.00000000	    -27.50501089	      7.09739169	    -17.12223400
      5.95500000	     13.21549576	     -2.03202711	     14.50107262	      1.60470400	      0.91834117	     -0.27280546	      6.73111540	      2.74077141	     -7.12226091	     -7.82397534	     12.79400029	     -3.11223312	      0.00000000	    -28.78509387	     -7.78350922	      7.82292051	    -22.77828599	     16.89146466	     14.92885991	      0.00000000	    -27.39847384	      7.68674977	    -17.03671205
      5.96000000	     13.31739452	     -2.58387313	     14.65349746	      1.61210430	      0.91797803	     -0.27229122	      6.74703649	      3.47270697	     -7.01947404	     -8.65368703	     12.76411368	     -3.49550342	      0.00000000	    -28.47227312	     -8.54823506	      7.35076920	    -24.18523847	     16.37355965	     15.63616097	      0.00000000	    -27.28026870	      8.29156743	    -16.96166626
      5.96500000	     13.40705432	     -3.13282396	     14.81070204	      1.61952410	      0.91765355	     -0.27175081	      6.76022685	      4.20519617	     -6.93467478	     -9.46886082	     12.74668598	     -3.88513145	      0.00000000	    -28.10402094	     -9.31335114	      6.90008221	    -25.64151463	     15.77032249	     16.26991084	      0.00000000	    -27.14208556	      8.88607623	    -16.89171364
      5.97000000	     13.48175360	     -3.68299252	     14.96773849	      1.62695003	      0.91735123	     -0.27116850	      6.77631464	      4.94201207	     -6.86326964	    -10.26631604	     12.74930133	     -4.27584668	      0.00000000	    -27.67500793	    -10.08007460	      6.47607784	    -27.14939351	     15.10922615	     16.83660709	      0.00000000	    -26.98412822	      9.47051198	    -16.82582940
      5.97500000	     13.54558276	     -4.22707760	     15.12858153	      1.63434620	      0.91708504	     -0.27060031	      6.78735335	      5.67030047	     -6.81755720	    -11.03722072	     12.76752102	     -4.62776875	      0.00000000	    -27.18648137	    -10.83625129	      6.10155104	    -28.70873085	     14.38804984	     17.31509770	      0.00000000	    -26.81730982	     10.04692463	    -16.76068471
      5.98000000	     13.59189067	     -4.76426708	     15.29937712	      1.64172275	      0.91684272	     -0.27002082	      6.79968751	      6.38991645	     -6.79332371	    -11.77849165	     12.81280608	     -4.96953847	      0.00000000	    -26.63058806	    -11.58625329	      5.77559281	    -30.31395582	     13.62775371	     17.69965206	      0.00000000	    -26.62915587	     10.61078317	    -16.71431254
      5.98500000	     13.56250410	     -5.26260762	     15.48399646	      1.64897354	      0.91658706	     -0.26939247	      6.87828079	      7.05212718	     -6.78720457	    -12.49925261	     12.86066423	     -5.34037817	      0.00000000	    -25.92206469	    -12.28929230	      5.53581870	    -31.99777150	     12.83546409	     18.02403057	      0.00000000	    -26.38044966	     11.11423813	    -16.73859457
      5.99000000	     13.59366583	     -5.78589185	     15.66183832	      1.65630381	      0.91641014	     -0.26885352	      6.86456852	      7.75056137	     -6.84055487	    -13.15909015	     12.99043509	     -5.57403154	      0.00000000	    -25.26252216	    -13.01264301	      5.30176913	    -33.66925361	     12.01137949	     18.14771038	      0.00000000	    -26.17512084	     11.66290191	    -16.69295527
      5.99500000	     13.58347293	     -6.27984551	     15.87311861	      1.66352956	      0.91625586	     -0.26831599	      6.87194683	      8.40793440	     -6.91480444	    -13.77075796	     13.11223426	     -5.83037674	      0.00000000	    -24.49024965	    -13.70746023	      5.17957769	    -35.39247593	     11.16413501	     18.21578524	      0.00000000	    -25.93594109	     12.18254128	    -16.71466765
      6.00000000	     13.55457074	     -6.75615898	     16.09558874	      1.67070672	      0.91613436	     -0.26782343	      6.87425621	      9.03795686	     -7.02140498	    -14.33345139	     13.27164162	     -6.03727611	      0.00000000	    -23.65167887	    -14.37109362	      5.12859033	    -37.13680976	     10.30823394	     18.14064676	      0.00000000	    -25.67689988	     12.68372060	    -16.75036586
